<?xml version="1.0" standalone="no"?>
<!DOCTYPE svg PUBLIC "-//W3C//DTD SVG 20010904//EN"
 "http://www.w3.org/TR/2001/REC-SVG-20010904/DTD/svg10.dtd">
<svg version="1.0" xmlns="http://www.w3.org/2000/svg"
 width="300.000000pt" height="300.000000pt" viewBox="0 0 300.000000 300.000000"
 preserveAspectRatio="xMidYMid meet">
<metadata>
Created by potrace 1.10, written by Peter Selinger 2001-2011
</metadata>
<g transform="translate(0.000000,300.000000) scale(0.100000,-0.100000)"
fill="#000000" stroke="none">
<path d="M1210 2207 c-19 -6 -58 -34 -87 -62 -40 -39 -55 -62 -68 -108 -27
-95 -4 -186 66 -256 60 -60 79 -66 258 -71 l164 -5 -2 -102 c-1 -62 2 -104 8
-108 8 -4 11 29 11 104 l0 111 132 0 c72 0 128 3 125 7 -4 3 -63 5 -132 4
l-125 -1 0 242 0 243 152 -3 c129 -2 160 -6 198 -23 90 -42 128 -94 137 -194
10 -108 -38 -193 -132 -234 -22 -10 -51 -22 -65 -29 l-25 -11 30 0 c79 -1 182
87 209 180 20 66 20 82 0 150 -20 67 -97 148 -160 167 -54 16 -643 15 -694 -1z
m330 -240 c3 -147 1 -231 -5 -236 -15 -11 -247 -13 -270 -2 -11 5 -35 15 -54
22 -50 19 -89 56 -118 112 -23 46 -25 58 -18 121 7 79 16 99 55 138 39 37 74
58 106 64 16 3 31 7 33 10 3 2 64 3 135 2 l131 -3 5 -228z"/>
<path d="M1207 1685 c-83 -29 -147 -113 -163 -212 -19 -120 81 -255 206 -277
28 -5 22 0 -32 27 -37 18 -79 44 -93 57 -32 30 -65 118 -65 173 0 51 34 132
51 121 8 -5 9 -3 4 5 -11 19 33 61 100 92 63 29 58 38 -8 14z"/>
<path d="M1727 1686 c-85 -31 -147 -104 -154 -184 l-4 -47 19 51 c31 87 105
159 174 171 21 3 38 9 38 14 0 13 -29 10 -73 -5z"/>
<path d="M1840 1690 c0 -5 9 -10 20 -10 31 0 91 -34 127 -72 68 -70 86 -167
48 -253 -54 -122 -180 -173 -307 -125 -76 29 -138 107 -141 179 -1 30 -4 37
-10 25 -36 -65 62 -206 163 -234 97 -27 185 -5 257 65 41 40 55 62 68 109 36
123 -25 255 -140 307 -44 20 -85 25 -85 9z"/>
<path d="M1547 1385 c-4 -11 -8 -56 -7 -100 1 -44 1 -86 1 -92 -1 -10 -40 -13
-159 -13 l-158 0 -54 -33 c-137 -81 -167 -265 -64 -385 95 -112 257 -122 366
-24 78 70 83 89 86 332 4 254 1 344 -11 315z m-14 -359 c-2 -149 -7 -177 -39
-227 -42 -67 -106 -99 -200 -100 -129 -1 -234 112 -221 238 6 61 14 95 25 102
5 3 12 15 16 26 6 20 56 58 106 82 16 8 75 11 170 10 l144 -2 -1 -129z"/>
</g>
</svg>
