<?xml version="1.0" standalone="no"?>
<!DOCTYPE svg PUBLIC "-//W3C//DTD SVG 20010904//EN"
 "http://www.w3.org/TR/2001/REC-SVG-20010904/DTD/svg10.dtd">
<svg version="1.0" xmlns="http://www.w3.org/2000/svg"
 width="300.000000pt" height="231.000000pt" viewBox="0 0 300.000000 231.000000"
 preserveAspectRatio="xMidYMid meet">
<metadata>
Created by potrace 1.10, written by Peter Selinger 2001-2011
</metadata>
<g transform="translate(0.000000,231.000000) scale(0.100000,-0.100000)"
fill="#000000" stroke="none">
<path d="M1298 2030 c-270 -42 -504 -218 -619 -464 -54 -116 -72 -213 -67
-366 4 -118 9 -146 35 -222 94 -269 306 -463 577 -528 99 -24 255 -26 354 -5
71 15 198 61 207 75 3 4 -55 88 -128 186 -73 99 -204 284 -290 412 l-157 232
-2 -242 -3 -243 -45 0 -45 0 0 330 0 330 45 0 45 0 86 -130 c47 -71 192 -290
321 -486 l235 -357 34 26 c215 161 329 387 329 649 0 142 -19 230 -74 348
-104 220 -307 387 -537 439 -84 19 -230 27 -301 16z m285 -56 c159 -35 340
-151 434 -277 108 -147 153 -284 153 -466 0 -185 -52 -337 -159 -471 -53 -66
-133 -140 -150 -140 -6 0 -76 98 -154 218 -385 585 -457 691 -483 711 -39 31
-93 28 -127 -7 l-27 -28 0 -320 c0 -320 0 -321 23 -347 32 -37 93 -38 128 -1
23 24 24 32 28 185 2 114 6 159 15 156 6 -2 63 -80 126 -173 63 -93 163 -236
223 -316 59 -80 107 -151 107 -156 0 -29 -184 -72 -310 -72 -221 0 -401 79
-557 244 -138 146 -203 312 -203 519 0 131 17 210 70 322 96 207 277 357 500
415 95 24 263 26 363 4z"/>
<path d="M1589 1564 c-24 -25 -24 -27 -24 -242 l0 -217 28 -48 c36 -61 85
-117 103 -117 24 0 42 43 44 105 1 33 2 158 1 278 -1 217 -1 218 -26 242 -34
35 -93 34 -126 -1z m111 -46 c0 -18 1 -151 2 -295 2 -143 1 -260 -2 -258 -3 2
-27 37 -53 78 l-47 75 0 200 c0 110 3 207 6 216 4 11 19 16 50 16 43 0 44 -1
44 -32z"/>
</g>
</svg>
