<?xml version="1.0" standalone="no"?>
<!DOCTYPE svg PUBLIC "-//W3C//DTD SVG 20010904//EN"
 "http://www.w3.org/TR/2001/REC-SVG-20010904/DTD/svg10.dtd">
<svg version="1.0" xmlns="http://www.w3.org/2000/svg"
 width="300.000000pt" height="300.000000pt" viewBox="0 0 300.000000 300.000000"
 preserveAspectRatio="xMidYMid meet">
<metadata>
Created by potrace 1.10, written by Peter Selinger 2001-2011
</metadata>
<g transform="translate(0.000000,300.000000) scale(0.100000,-0.100000)"
fill="#000000" stroke="none">
<path d="M1316 2864 c-107 -19 -242 -66 -350 -120 -357 -180 -605 -505 -693
-906 -25 -118 -25 -399 1 -518 47 -216 134 -396 283 -581 l48 -60 216 223
c120 123 216 224 214 226 -1 2 -29 -4 -61 -12 -75 -19 -295 -66 -311 -66 -31
0 -4 42 120 188 329 387 419 481 577 601 161 123 256 163 387 165 40 1 73 1
73 2 0 0 -7 22 -16 48 -36 106 2 254 86 330 67 60 124 81 225 81 80 0 96 -3
141 -29 84 -46 121 -83 154 -150 67 -141 22 -319 -102 -404 -90 -62 -230 -75
-322 -31 -22 11 -41 19 -43 19 -2 0 -3 -24 -3 -53 0 -165 -119 -391 -328 -623
-102 -113 -514 -478 -695 -614 l-98 -74 23 -18 c48 -37 200 -109 299 -142 295
-98 634 -86 909 31 260 111 476 297 616 529 316 524 228 1193 -212 1613 -191
183 -423 301 -678 346 -111 19 -351 19 -460 -1z m424 -24 c72 -11 163 -33 225
-56 76 -27 199 -85 207 -98 4 -6 8 -7 8 -1 0 6 3 6 8 -1 4 -6 33 -25 64 -43
122 -69 294 -240 368 -366 121 -207 181 -379 198 -566 16 -180 -1 -351 -50
-499 -35 -107 -81 -219 -88 -215 -3 2 -12 -12 -20 -32 -7 -21 -26 -55 -41 -77
-16 -23 -37 -52 -47 -66 -94 -133 -277 -292 -394 -343 -16 -6 -28 -15 -28 -20
0 -4 -4 -6 -9 -3 -4 3 -19 -3 -31 -14 -13 -11 -28 -21 -34 -21 -23 -3 -32 -6
-79 -28 -56 -26 -51 -25 -192 -56 -97 -21 -130 -23 -275 -20 -91 2 -178 6
-195 9 -34 6 -113 25 -135 33 -8 4 -21 7 -27 9 -58 12 -214 83 -264 120 l-31
23 33 30 c18 17 39 31 46 31 7 0 13 3 13 8 0 4 32 32 72 62 40 30 81 64 93 75
20 19 107 95 183 160 20 17 46 40 59 53 13 12 26 22 28 22 20 0 238 222 305
309 14 18 35 45 46 59 42 53 116 174 141 230 61 141 68 163 72 251 1 18 5 22
19 16 65 -28 206 -23 279 11 46 22 133 85 133 97 0 5 8 21 19 35 55 79 66 236
24 332 -28 63 -107 140 -178 175 -54 26 -70 29 -155 29 -100 -1 -117 -6 -206
-63 -42 -26 -81 -78 -119 -156 -15 -31 -19 -62 -20 -137 l0 -97 -45 -6 c-85
-11 -197 -48 -239 -79 -7 -6 -20 -11 -29 -12 -8 -2 -18 -7 -21 -12 -3 -6 -28
-25 -56 -44 -53 -35 -84 -61 -147 -118 -21 -19 -43 -40 -50 -46 -27 -24 -205
-213 -240 -255 -20 -25 -49 -57 -63 -73 -14 -15 -25 -30 -25 -33 0 -7 -115
-138 -151 -173 -14 -14 -29 -33 -32 -42 -4 -10 -11 -18 -16 -18 -5 0 -14 -14
-20 -32 -10 -29 -9 -35 13 -57 l25 -24 103 22 c57 13 110 25 119 27 9 3 19 -2
22 -9 3 -9 -42 -63 -119 -141 -68 -70 -124 -132 -124 -138 0 -6 -3 -8 -6 -5
-4 3 -15 -5 -26 -18 -24 -31 -36 -26 -84 38 -21 29 -42 54 -45 57 -4 3 -30 45
-57 93 -144 250 -201 551 -157 822 22 137 33 182 55 232 11 25 20 51 20 57 0
17 78 167 106 203 13 17 24 36 24 41 0 5 10 20 23 34 12 13 35 42 52 63 45 60
146 156 156 149 5 -3 8 -2 7 3 -3 9 33 53 43 53 8 0 107 63 129 82 8 7 17 13
20 12 3 -1 28 11 55 26 28 15 61 30 75 35 14 4 39 13 55 20 59 24 132 46 200
59 78 16 338 19 425 6z"/>
<path d="M2010 2413 c-62 -22 -142 -105 -163 -167 -64 -188 64 -377 258 -380
33 -1 73 3 88 7 l29 8 -106 109 c-58 61 -106 116 -105 123 0 6 61 66 134 132
74 66 134 123 134 127 1 4 -18 17 -41 29 -57 29 -166 35 -228 12z m203 -28 c9
-4 17 -10 17 -14 0 -3 -56 -60 -126 -127 -147 -141 -145 -120 -28 -250 41 -45
74 -87 74 -94 0 -8 -15 -11 -47 -7 -67 6 -86 12 -129 40 -75 48 -113 115 -115
202 -1 72 3 105 12 105 4 0 9 10 13 23 8 33 56 81 116 116 47 27 155 30 213 6z"/>
<path d="M2260 2297 c-30 -29 -88 -82 -129 -119 l-73 -68 98 -105 c53 -58 101
-105 105 -105 17 0 81 65 106 108 21 35 27 62 31 123 4 70 2 85 -22 132 -14
30 -34 61 -44 70 -16 15 -21 12 -72 -36z m80 -37 c22 -31 20 -33 -16 -31 -36
3 -52 -28 -55 -106 -3 -58 0 -75 15 -92 10 -11 24 -17 32 -14 8 3 14 1 14 -3
-1 -15 -48 -64 -62 -64 -12 0 -73 59 -138 133 l-24 28 29 25 c17 14 56 50 88
81 31 31 57 52 57 47 0 -5 5 -1 11 9 14 24 24 21 49 -13z m4 -102 c7 -34 -9
-103 -25 -114 -22 -13 -32 13 -19 50 8 26 9 45 2 65 -7 20 -7 32 1 40 15 15
33 -3 41 -41z"/>
<path d="M1663 1955 c-88 -19 -183 -73 -304 -169 -101 -80 -260 -237 -366
-362 l-52 -61 83 -81 84 -81 368 370 c203 203 371 374 372 379 2 6 -2 10 -10
10 -7 0 -35 2 -63 5 -27 2 -78 -2 -112 -10z m122 -26 c6 -7 -659 -679 -672
-679 -15 0 -103 84 -103 99 0 8 -6 11 -15 7 -28 -10 -15 14 35 66 28 28 50 55
50 58 0 4 21 28 48 54 26 25 61 61 79 78 64 67 121 118 131 118 5 0 17 11 26
25 9 14 23 25 30 25 8 0 16 3 18 8 7 15 87 72 139 99 30 15 77 32 104 38 49
11 120 13 130 4z"/>
<path d="M1507 1546 l-367 -371 54 -54 55 -54 293 298 c161 163 309 320 328
348 26 40 35 64 38 108 4 52 -9 101 -26 97 -4 0 -172 -168 -375 -372z m368
277 c-12 -80 -47 -124 -325 -406 -151 -153 -282 -283 -291 -288 -12 -6 -23 0
-43 20 l-26 27 337 342 c186 188 341 342 346 342 5 0 6 -17 2 -37z"/>
<path d="M1785 1568 c-42 -46 -175 -181 -294 -300 l-216 -218 32 -32 32 -31
48 41 c77 64 242 239 306 324 72 96 190 298 173 298 -1 0 -38 -37 -81 -82z
m-62 -127 c-10 -17 -21 -31 -25 -31 -5 0 -8 -6 -8 -13 0 -20 -128 -166 -229
-261 -24 -22 -60 -58 -80 -79 -34 -35 -37 -36 -48 -19 -10 17 12 43 195 230
113 117 207 210 209 208 2 -2 -4 -17 -14 -35z"/>
<path d="M814 1212 c-74 -88 -91 -114 -73 -109 13 4 89 21 169 38 80 18 147
33 149 35 2 2 -31 36 -72 77 l-75 73 -98 -114z m139 35 c38 -32 35 -54 -10
-65 -21 -5 -58 -14 -83 -20 -25 -6 -46 -9 -47 -8 -2 2 5 12 14 24 10 11 31 37
46 56 33 42 45 44 80 13z"/>
<path d="M1043 1072 c-35 -37 -63 -67 -63 -68 0 0 39 8 88 18 48 10 99 18 115
18 15 0 27 4 27 9 0 9 -85 84 -98 88 -4 1 -35 -28 -69 -65z"/>
<path d="M1070 984 l-135 -25 -85 -87 c-46 -48 -174 -179 -283 -291 l-199
-203 118 -119 c65 -65 119 -117 121 -115 2 1 -11 58 -27 126 -17 67 -29 124
-28 125 2 1 23 13 47 25 59 30 201 121 276 178 55 42 164 132 361 298 l72 62
-27 26 c-32 31 -37 31 -211 0z m185 -15 c8 -11 2 -17 -150 -149 -61 -52 -112
-97 -115 -101 -36 -39 -407 -289 -429 -289 -4 0 -14 -11 -21 -25 -11 -20 -11
-35 -2 -76 23 -97 18 -100 -53 -29 -36 35 -65 70 -65 76 0 7 32 45 71 85 39
41 96 101 127 134 31 33 60 59 65 57 4 -1 6 2 5 6 -2 4 40 50 92 102 52 52
107 110 122 129 15 19 28 30 28 26 0 -5 9 0 20 10 11 10 20 16 20 12 0 -3 17
-1 38 5 101 30 237 44 247 27z"/>
<path d="M223 231 l-112 -113 72 6 c40 3 138 7 219 8 82 2 147 5 145 8 -1 3
-49 50 -107 105 l-105 100 -112 -114z m182 9 c49 -50 57 -62 45 -70 -16 -10
-240 -14 -240 -4 0 8 122 134 129 134 4 0 33 -27 66 -60z"/>
</g>
</svg>
