<?xml version="1.0" standalone="no"?>
<!DOCTYPE svg PUBLIC "-//W3C//DTD SVG 20010904//EN"
 "http://www.w3.org/TR/2001/REC-SVG-20010904/DTD/svg10.dtd">
<svg version="1.0" xmlns="http://www.w3.org/2000/svg"
 width="300.000000pt" height="300.000000pt" viewBox="0 0 300.000000 300.000000"
 preserveAspectRatio="xMidYMid meet">
<metadata>
Created by potrace 1.10, written by Peter Selinger 2001-2011
</metadata>
<g transform="translate(0.000000,300.000000) scale(0.100000,-0.100000)"
fill="#000000" stroke="none">
<path d="M1305 2859 c-170 -17 -315 -65 -388 -129 -68 -59 -71 -73 -77 -288
l-5 -192 335 0 335 0 -3 -47 -4 -48 -485 3 c-413 2 -495 0 -547 -13 -149 -39
-250 -152 -307 -347 -27 -93 -38 -372 -20 -500 34 -230 122 -383 258 -445 52
-24 72 -27 206 -31 l147 -4 0 206 c0 182 2 214 21 268 37 110 93 173 195 220
48 23 58 23 484 28 417 5 437 7 489 27 109 44 171 107 205 206 14 41 16 103
16 425 0 374 0 377 -24 427 -84 182 -410 274 -831 234z m425 -43 c106 -17 181
-41 222 -69 16 -10 33 -15 39 -11 7 4 9 3 6 -3 -4 -6 4 -15 17 -21 31 -14 95
-92 105 -129 4 -15 8 -188 8 -383 1 -327 -1 -360 -19 -417 -23 -74 -78 -136
-152 -171 -60 -28 -124 -33 -561 -37 -181 -1 -339 -5 -350 -7 -54 -13 -131
-40 -154 -55 -79 -51 -153 -173 -170 -278 -5 -33 -10 -127 -10 -210 -1 -104
-6 -152 -14 -158 -7 -4 -69 -6 -138 -5 -119 3 -129 5 -170 32 -96 62 -162 167
-199 313 -16 65 -20 117 -21 284 -1 112 2 218 6 234 25 105 85 242 115 260 6
4 15 18 20 31 5 13 16 24 24 24 7 0 19 7 26 15 12 14 31 24 104 54 20 8 166
12 523 11 303 0 501 3 512 9 26 14 45 65 36 98 -15 63 -7 62 -343 63 -220 0
-308 4 -313 12 -4 6 -8 78 -8 159 0 145 0 148 28 189 43 65 146 130 208 132 5
0 17 5 28 11 42 23 182 35 370 32 105 -1 206 -5 225 -9z"/>
<path d="M1068 2683 c-16 -2 -28 -11 -28 -19 0 -8 -6 -14 -13 -14 -8 0 -25
-23 -39 -52 l-26 -52 19 -51 c23 -59 56 -89 115 -105 38 -11 47 -10 88 11 98
49 119 158 47 237 -40 44 -87 57 -163 45z m106 -38 c41 -20 66 -63 66 -115 0
-34 -6 -48 -34 -76 -28 -28 -42 -34 -76 -34 -105 0 -161 101 -104 188 16 25
66 51 97 52 11 0 33 -7 51 -15z"/>
<path d="M2259 2170 c0 -3 0 -77 1 -165 2 -289 -45 -419 -182 -498 -77 -45
-107 -48 -506 -48 -401 1 -466 -5 -551 -49 -64 -32 -118 -86 -148 -148 l-28
-57 -3 -387 -3 -387 26 -55 c75 -159 287 -236 650 -236 290 0 488 50 579 146
64 67 66 78 66 279 l0 182 -270 2 c-272 2 -390 -4 -390 -20 0 -5 144 -9 321
-9 l321 0 -4 -172 c-3 -170 -3 -174 -31 -214 -29 -42 -159 -130 -177 -119 -5
3 -11 2 -14 -3 -5 -8 -52 -20 -166 -40 -67 -13 -397 -14 -460 -2 -134 25 -171
34 -176 41 -3 5 -14 9 -25 9 -11 0 -36 10 -57 23 -20 13 -44 26 -53 29 -26 10
-87 91 -104 138 -12 35 -15 105 -15 389 0 208 4 362 11 386 27 106 109 199
199 225 33 10 164 16 475 21 237 3 442 10 457 14 15 4 33 13 39 21 6 8 19 14
28 14 21 0 120 80 120 98 1 6 5 12 10 12 5 0 12 11 15 25 4 14 11 25 16 25 6
0 10 10 10 23 0 12 9 47 20 77 17 47 20 80 20 227 0 119 4 174 12 179 6 4 62
6 123 5 155 -2 208 -22 291 -111 13 -14 24 -29 24 -33 0 -5 11 -23 25 -41 14
-18 25 -43 25 -54 0 -12 4 -22 8 -22 8 0 32 -78 34 -110 0 -8 4 -19 8 -25 19
-26 18 -439 -1 -490 -4 -11 -13 -46 -20 -78 -7 -31 -18 -62 -26 -68 -7 -6 -13
-21 -13 -32 0 -39 -94 -143 -162 -178 -71 -36 -119 -40 -613 -39 -312 0 -486
-3 -490 -10 -7 -11 907 -19 992 -8 165 20 288 152 345 369 19 72 22 111 23
274 0 203 -10 278 -52 393 -30 83 -72 149 -128 201 -71 65 -100 74 -273 80
-83 3 -152 4 -153 1z"/>
<path d="M1837 602 c-26 -2 -45 -7 -42 -12 3 -5 -3 -18 -15 -30 -11 -11 -20
-17 -21 -12 -2 12 -20 -62 -19 -78 0 -8 0 -23 1 -33 1 -57 72 -117 137 -117
43 0 69 14 110 58 36 40 41 80 18 135 -31 73 -73 95 -169 89z m88 -26 c95 -40
99 -178 7 -222 -83 -39 -172 13 -172 101 0 56 13 84 53 113 37 26 64 28 112 8z"/>
</g>
</svg>
