<?xml version="1.0" standalone="no"?>
<!DOCTYPE svg PUBLIC "-//W3C//DTD SVG 20010904//EN"
 "http://www.w3.org/TR/2001/REC-SVG-20010904/DTD/svg10.dtd">
<svg version="1.0" xmlns="http://www.w3.org/2000/svg"
 width="300.000000pt" height="300.000000pt" viewBox="0 0 300.000000 300.000000"
 preserveAspectRatio="xMidYMid meet">
<metadata>
Created by potrace 1.10, written by Peter Selinger 2001-2011
</metadata>
<g transform="translate(0.000000,300.000000) scale(0.100000,-0.100000)"
fill="#000000" stroke="none">
<path d="M1330 2929 c-536 -67 -997 -449 -1164 -964 -48 -148 -61 -236 -61
-430 0 -197 12 -277 66 -438 158 -474 555 -828 1049 -934 121 -26 439 -26 560
0 274 59 510 187 705 382 207 207 329 432 392 726 14 64 18 128 18 264 0 263
-32 401 -146 630 -74 149 -160 265 -287 386 -197 188 -423 306 -682 359 -120
25 -335 34 -450 19z m395 -75 c391 -67 743 -316 940 -664 251 -442 224 -986
-68 -1413 -383 -561 -1148 -741 -1742 -409 -513 286 -779 860 -664 1434 79
397 350 749 717 932 95 48 255 101 357 119 110 20 348 21 460 1z"/>
<path d="M1370 2734 c-273 -35 -516 -151 -708 -337 -67 -65 -162 -179 -162
-193 0 -5 93 -6 207 -2 204 8 208 7 226 -13 22 -27 21 -35 -2 -58 -13 -13 -40
-20 -92 -25 l-74 -7 198 -592 c110 -326 206 -618 215 -649 9 -32 19 -58 22
-58 11 1 263 787 258 806 -8 25 -178 487 -181 491 -2 1 -34 5 -72 9 -81 8 -95
16 -95 54 0 47 19 54 127 46 53 -4 178 -6 278 -5 99 1 211 3 250 3 67 1 70 0
79 -26 16 -46 -11 -64 -103 -72 l-77 -7 57 -167 c32 -92 129 -382 216 -644 87
-262 160 -477 163 -477 3 -1 20 54 39 122 18 67 58 196 87 287 125 382 116
495 -60 790 -91 151 -93 261 -7 353 35 39 73 57 116 57 19 0 35 3 34 8 -1 14
-156 121 -240 166 -180 96 -324 134 -529 140 -74 2 -151 2 -170 0z m380 -53
c101 -22 174 -47 254 -87 90 -44 110 -56 169 -102 l59 -45 -32 -15 c-79 -38
-133 -128 -133 -221 0 -82 33 -163 134 -321 9 -14 29 -61 45 -105 26 -71 29
-93 29 -195 0 -68 -6 -134 -14 -160 -15 -51 -68 -211 -80 -243 -5 -12 -13 -38
-18 -57 -32 -111 -58 -190 -63 -190 -10 0 -45 95 -135 365 -47 143 -89 269
-94 280 -5 11 -15 40 -22 65 -7 25 -15 50 -19 55 -4 6 -12 30 -20 55 -7 25
-28 90 -47 145 -19 55 -36 108 -38 119 -2 10 -7 21 -10 24 -13 13 22 32 61 32
83 0 129 80 76 132 -20 21 -29 21 -374 22 -351 1 -353 1 -375 -21 -29 -27 -30
-72 -3 -101 20 -21 76 -42 115 -42 11 0 25 -4 31 -8 15 -9 54 -99 46 -106 -3
-3 -1 -6 5 -6 5 0 16 -25 23 -55 7 -30 18 -55 23 -55 6 0 8 -2 5 -5 -3 -4 14
-59 38 -123 47 -126 49 -133 35 -160 -5 -9 -48 -136 -96 -282 -104 -319 -115
-350 -126 -350 -9 0 -24 40 -21 58 2 6 -1 12 -6 12 -5 0 -14 19 -21 43 -7 23
-16 51 -20 62 -4 11 -18 54 -31 95 -12 41 -29 89 -36 107 -8 17 -14 36 -14 42
0 6 -16 57 -35 113 -20 57 -38 110 -40 118 -6 26 -46 142 -71 208 -13 34 -24
70 -24 80 0 10 -7 27 -15 38 -8 10 -15 28 -15 39 0 11 -7 33 -15 49 -8 15 -12
32 -9 37 2 5 0 17 -5 28 -10 17 -6 20 42 26 66 9 83 18 102 55 14 27 14 33 0
60 -25 49 -40 52 -226 44 -115 -4 -169 -3 -169 4 0 35 247 272 284 272 3 0 26
15 51 34 24 19 55 38 67 42 13 4 52 20 87 36 35 16 78 32 95 35 17 3 55 12 85
20 126 35 358 37 511 4z"/>
<path d="M2554 1967 c0 -158 -13 -220 -83 -414 -22 -59 -106 -299 -186 -533
-81 -234 -155 -446 -165 -472 -10 -27 -14 -48 -10 -48 5 0 46 28 92 61 207
153 358 359 438 597 79 236 80 511 4 747 -25 75 -79 205 -86 205 -2 0 -3 -64
-4 -143z m80 -134 c51 -216 47 -429 -10 -623 -36 -122 -80 -222 -119 -270 -6
-8 -26 -38 -43 -67 -17 -28 -39 -61 -49 -74 -39 -47 -173 -175 -202 -192 -29
-17 -31 -17 -31 -1 0 16 61 209 79 249 5 11 26 70 46 130 20 61 41 119 45 130
10 23 79 222 116 335 14 41 27 82 31 90 3 8 7 17 8 20 1 3 4 12 8 20 9 24 27
85 26 90 0 3 5 18 11 35 6 16 18 61 26 100 14 62 21 94 23 103 1 2 5 1 10 -2
5 -3 16 -36 25 -73z"/>
<path d="M392 2010 c-58 -149 -83 -267 -89 -430 -4 -110 -1 -168 11 -240 52
-297 206 -560 435 -740 79 -62 222 -153 229 -145 2 2 -1 12 -7 23 -5 10 -69
181 -141 378 -73 197 -193 526 -267 729 -75 204 -141 388 -148 410 -13 39 -13
40 -23 15z m46 -173 c12 -34 42 -116 67 -182 40 -103 72 -194 81 -230 1 -5 12
-35 24 -65 24 -62 96 -259 111 -305 6 -16 15 -38 20 -47 10 -19 53 -140 71
-198 5 -19 14 -40 20 -47 5 -6 11 -22 13 -35 3 -12 16 -52 31 -88 14 -36 27
-75 29 -87 3 -22 3 -22 -28 -5 -62 34 -112 71 -146 106 -19 20 -37 36 -42 36
-9 0 -119 133 -164 199 -80 118 -167 337 -182 461 -4 30 -6 127 -6 215 0 158
3 176 44 312 14 45 32 33 57 -40z"/>
<path d="M1510 1415 c0 -11 -313 -933 -345 -1017 -5 -13 6 -19 62 -32 120 -27
270 -37 378 -26 97 10 254 42 280 58 9 5 -31 124 -157 467 -92 253 -176 484
-185 513 -16 49 -33 69 -33 37z m45 -172 c46 -114 78 -209 78 -229 0 -7 3 -11
7 -9 3 2 19 -35 35 -83 16 -48 32 -91 36 -97 4 -5 16 -37 27 -70 42 -124 65
-188 89 -247 22 -54 24 -97 4 -97 -9 0 -38 -6 -66 -14 -39 -11 -208 -29 -280
-30 -46 0 -212 16 -229 23 -11 5 -29 11 -40 14 -13 4 -15 10 -9 19 6 6 16 35
22 62 7 28 18 64 26 80 7 17 15 39 18 50 7 27 136 405 147 430 5 11 14 38 21
60 6 22 15 45 20 50 4 6 10 22 12 35 9 49 39 130 47 125 4 -3 20 -35 35 -72z"/>
</g>
</svg>
